# xmcd CD database file
#
# Track frame offsets:
#	150
#	18014
#	31813
#	46411
#	60302
#	70843
#	87238
#	100916
#	116445
#	135682
#	152919
#	165946
#	176903
#	193507
#	210084
#	224335
#	238026
#	253361
#	268917
#	282941
#
# Disc length: 3973 seconds
#
# Revision: 26
# Processed by: cddbd v1.5.1PL2 Copyright (c) Steve Scherf et al.
# Submitted via: CDex 1.51
#
DISCID=160f8314
DTITLE=Various Artist - Western Hits 2
DYEAR=1900
DGENRE=Country
TTITLE0=Gabriel, Gunther - Intercity Nr. 4
TTITLE1=Tennessee - Ein Bier, Ein Bier
TTITLE2=Cissy - Daddy Ist Auf Der Autobahn
TTITLE3=Saloon, Sammy's - Sammy's Honky Tonk Saloon
TTITLE4=Quint, Jo - Oh, Warum Nicht
TTITLE5=Saloon, Sammy's - Proud Mary
TTITLE6=Tennessee - Tausche Ufo Gegen 30Tonner Diesel
TTITLE7=Rose, Country - O'Carlos
TTITLE8=Saloon, Sammy's - Riders In The Sky
TTITLE9=Gabriel, Gunther - Komm Unter Meine Decke
TTITLE10=Cissy - Zeigt Uns Den Platz
TTITLE11=Quint, Jo - Viel Gold Und Keine Freunde
TTITLE12=Traumfrau - Tennessee
TTITLE13=Saloon, Sammy's - Down On The Corner
TTITLE14=Cissy - Truckin' Cowboy
TTITLE15=Wo Bist Du? - Tennessee
TTITLE16=Haper, Tex - Gute Laune
TTITLE17=Robinson, Tex - San Antonio Rose
TTITLE18=Chilly Lady - Tennessee
TTITLE19=Cissy - Ich Steh' Am Fenster
EXTD=
EXTT0=
EXTT1=
EXTT2=
EXTT3=
EXTT4=
EXTT5=
EXTT6=
EXTT7=
EXTT8=
EXTT9=
EXTT10=
EXTT11=
EXTT12=
EXTT13=
EXTT14=
EXTT15=
EXTT16=
EXTT17=
EXTT18=
EXTT19=
PLAYORDER=
